<svg width="513" height="512" viewBox="0 0 513 512" fill="none" xmlns="http://www.w3.org/2000/svg">
<path d="M96.9915 190.947C91.8558 200.779 83.8085 208.786 73.9493 213.874L200.448 340.825L230.945 325.374L96.9915 190.947ZM263.847 358.392L233.35 373.842L297.447 438.169C302.583 428.335 310.632 420.326 320.494 415.238L263.847 358.392Z" fill="white"/>
<path d="M338.59 277.461L343.87 311.225L424.9 270.171C417.132 262.25 412 252.125 410.205 241.178L338.59 277.461ZM297.016 298.522L127.687 384.309C135.457 392.231 140.59 402.357 142.386 413.305L302.296 332.288L297.016 298.522Z" fill="white"/>
<path d="M160.855 246.665L184.979 270.874L271.489 102.045C260.548 100.194 250.445 95.0123 242.561 87.2062L160.855 246.665ZM139.605 288.138L98.2184 368.906C109.158 370.756 119.26 375.938 127.143 383.743L163.727 312.345L139.605 288.138Z" fill="white"/>
<path d="M73.2468 214.229C63.3207 219.189 52.1048 220.963 41.1318 219.31L65.2981 373.837C75.2232 368.878 86.438 367.103 97.4101 368.755L73.2468 214.229Z" fill="white"/>
<path d="M142.514 414.07C144.155 425.041 142.367 436.251 137.394 446.167L291.945 470.959C290.304 459.989 292.092 448.779 297.065 438.862L142.514 414.07Z" fill="white"/>
<path d="M354.108 409.955C365.05 411.805 375.154 416.988 383.039 424.795L454.372 285.577C443.431 283.727 433.328 278.544 425.444 270.736L354.108 409.955Z" fill="white"/>
<path d="M328.152 73.8323C323.015 83.6664 314.966 91.6749 305.105 96.7633L415.578 207.627C420.714 197.793 428.762 189.784 438.623 184.695L328.152 73.8323Z" fill="white"/>
<path d="M87.6699 128.399C95.4385 136.32 100.571 146.445 102.366 157.392L242.016 86.6398C234.248 78.7197 229.116 68.5955 227.321 57.6501L87.6699 128.399Z" fill="white"/>
<path d="M304.85 96.8915C294.966 101.936 283.765 103.806 272.777 102.246L285.148 181.433L318.902 186.847L304.85 96.8915ZM292.337 227.469L321.585 414.689C331.553 409.813 342.784 408.133 353.743 409.879L326.093 232.881L292.337 227.469Z" fill="white"/>
<path d="M102.466 157.985C104.145 168.95 102.396 180.165 97.4588 190.099L176.732 202.827L192.313 172.41L102.466 157.985ZM238.332 179.797L222.749 210.218L410.055 240.29C408.443 229.314 410.26 218.108 415.259 208.204L238.332 179.797Z" fill="white"/>
<path d="M231.517 46.299C231.168 52.7192 232.086 59.1455 234.221 65.2108C236.355 71.2762 239.664 76.8619 243.958 81.649C248.252 86.4361 253.447 90.3308 259.246 93.1108C265.046 95.8908 271.337 97.5016 277.759 97.8513C284.181 98.201 290.61 97.2828 296.677 95.1489C302.744 93.0151 308.332 89.7075 313.12 85.4149C317.909 81.1224 321.805 75.929 324.586 70.1313C327.367 64.3336 328.978 58.0451 329.328 51.6248C329.678 45.2046 328.759 38.7783 326.625 32.713C324.49 26.6476 321.182 21.0619 316.888 16.2748C312.594 11.4878 307.399 7.59303 301.599 4.81302C295.799 2.03302 289.509 0.422175 283.087 0.0724725C276.664 -0.27723 270.236 0.641053 264.169 2.77489C258.101 4.90874 252.514 8.21634 247.725 12.5089C242.936 16.8014 239.04 21.9948 236.26 27.7925C233.479 33.5902 231.867 39.8787 231.517 46.299Z" fill="white"/>
<path d="M414.402 229.832C413.695 242.798 418.17 255.514 426.842 265.182C435.514 274.85 447.673 280.678 460.643 281.384C473.614 282.09 486.334 277.617 496.005 268.948C505.676 260.279 511.506 248.124 512.212 235.158C512.562 228.737 511.644 222.311 509.509 216.246C507.374 210.181 504.066 204.595 499.772 199.808C495.478 195.021 490.283 191.126 484.483 188.346C478.684 185.566 472.393 183.955 465.971 183.606C453 182.899 440.281 187.373 430.609 196.042C425.821 200.334 421.925 205.528 419.144 211.325C416.363 217.123 414.752 223.412 414.402 229.832Z" fill="white"/>
<path d="M296.271 460.375C295.921 466.796 296.84 473.222 298.974 479.287C301.109 485.352 304.417 490.938 308.711 495.725C313.005 500.512 318.2 504.407 324 507.187C329.799 509.967 336.09 511.578 342.512 511.927C348.935 512.277 355.363 511.359 361.43 509.225C367.498 507.091 373.085 503.784 377.874 499.491C382.662 495.199 386.558 490.005 389.339 484.208C392.12 478.41 393.731 472.121 394.081 465.701C394.431 459.281 393.513 452.855 391.378 446.789C389.243 440.724 385.935 435.138 381.641 430.351C377.347 425.564 372.152 421.669 366.352 418.889C360.553 416.109 354.262 414.499 347.84 414.149C341.418 413.799 334.989 414.717 328.922 416.851C322.855 418.985 317.267 422.293 312.478 426.585C307.69 430.878 303.794 436.071 301.013 441.869C298.232 447.667 296.621 453.955 296.271 460.375Z" fill="white"/>
<path d="M40.3772 419.326C39.6707 432.293 44.1456 445.008 52.8176 454.676C61.4895 464.344 73.6481 470.172 86.6186 470.879C99.589 471.585 112.309 467.111 121.98 458.442C131.651 449.773 137.481 437.619 138.188 424.652C138.894 411.686 134.419 398.97 125.747 389.302C121.453 384.515 116.258 380.621 110.459 377.841C104.659 375.061 98.3685 373.45 91.9462 373.1C78.9757 372.394 66.2558 376.867 56.5848 385.536C46.9137 394.206 41.0837 406.36 40.3772 419.326Z" fill="white"/>
<path d="M0.357225 163.413C0.0074086 169.833 0.925987 176.259 3.06052 182.325C5.19504 188.39 8.50371 193.976 12.7976 198.763C17.0915 203.55 22.2866 207.445 28.0862 210.225C33.8858 213.005 40.1763 214.615 46.5986 214.965C53.0209 215.315 59.4493 214.397 65.5166 212.263C71.5839 210.129 77.1714 206.821 81.96 202.529C86.7486 198.236 90.6446 193.043 93.4255 187.245C96.2064 181.448 97.8178 175.159 98.1676 168.739C98.5174 162.319 97.5988 155.892 95.4643 149.827C93.3298 143.762 90.0211 138.176 85.7272 133.389C81.4333 128.602 76.2382 124.707 70.4387 121.927C64.6391 119.147 58.3485 117.536 51.9262 117.187C45.5039 116.837 39.0756 117.755 33.0082 119.889C26.9409 122.023 21.3534 125.33 16.5648 129.623C11.7762 133.915 7.88021 139.109 5.09931 144.907C2.3184 150.704 0.707042 156.993 0.357225 163.413Z" fill="white"/>
</svg>
