<svg width="512" height="512" viewBox="0 0 512 512" fill="none" xmlns="http://www.w3.org/2000/svg">
<g clip-path="url(#clip0_1_4)">
<path d="M36 205C16.1178 205 0 221.118 0 241V476C0 495.882 16.1178 512 36 512H110.67C130.552 512 146.67 495.882 146.67 476V241C146.67 221.118 130.552 205 110.67 205H36Z" fill="white"/>
<path d="M218.665 102C198.783 102 182.665 118.118 182.665 138V476C182.665 495.882 198.783 512 218.665 512H293.335C313.217 512 329.335 495.882 329.335 476V138C329.335 118.118 313.217 102 293.335 102H218.665Z" fill="white"/>
<path d="M401.33 0C381.448 0 365.33 16.1177 365.33 36V476C365.33 495.882 381.448 512 401.33 512H476C495.882 512 512 495.882 512 476V36C512 16.1177 495.882 0 476 0H401.33Z" fill="white"/>
</g>
<defs>
<clipPath id="clip0_1_4">
<rect width="512" height="512" fill="white"/>
</clipPath>
</defs>
</svg>
