<svg width="1024" height="1024" viewBox="0 0 1024 1024" fill="none" xmlns="http://www.w3.org/2000/svg">
<g clip-path="url(#clip0_1_2)">
<rect width="1024" height="1024" rx="133" fill="white"/>
<path d="M126.481 555.067C126.472 555.052 126.481 555.05 126.481 555.067C132.717 566.591 163.347 592.989 297.719 592.989C461.662 592.989 468.713 554.322 468.981 549.866C468.982 549.849 468.989 549.864 468.989 549.881V891.977C468.989 891.984 468.996 891.99 468.989 891.99C468.699 891.99 130.204 891.846 126.481 555.067Z" fill="#007ECC" fill-opacity="0.74902"/>
<path d="M897.137 555.067C897.145 555.052 897.137 555.05 897.137 555.067C890.901 566.591 860.27 592.989 725.898 592.989C561.956 592.989 554.905 554.322 554.636 549.866C554.635 549.849 554.629 549.864 554.629 549.881V891.977C554.629 891.984 554.622 891.99 554.629 891.99C554.919 891.99 893.413 891.846 897.137 555.067Z" fill="#007ECC" fill-opacity="0.74902"/>
<path d="M322.156 376.649C273.22 376.67 175.406 425.578 126.474 474.494C126.465 474.503 126.451 474.496 126.451 474.484C130.722 357.776 153.636 244.66 224.294 132.016C224.301 132.005 224.319 132.01 224.319 132.024C224.339 278.43 321.695 376.155 322.186 376.647C322.194 376.655 322.168 376.649 322.156 376.649Z" fill="#007ECC" fill-opacity="0.74902"/>
<path d="M701.844 376.649C750.78 376.67 848.594 425.578 897.526 474.494C897.535 474.503 897.549 474.496 897.549 474.484C893.278 357.776 870.364 244.66 799.706 132.016C799.699 132.005 799.681 132.01 799.681 132.024C799.661 278.43 702.305 376.155 701.814 376.647C701.806 376.655 701.832 376.649 701.844 376.649Z" fill="#007ECC" fill-opacity="0.74902"/>
</g>
<defs>
<clipPath id="clip0_1_2">
<rect width="1024" height="1024" fill="white"/>
</clipPath>
</defs>
</svg>
